<mxfile host="app.diagrams.net" modified="2023-07-02T17:28:30.491Z" agent="Mozilla/5.0 (Windows NT 10.0; Win64; x64) AppleWebKit/537.36 (KHTML, like Gecko) Chrome/114.0.0.0 Safari/537.36" etag="XdaQ9vDX6BLpEX84xIAk" version="21.5.2" type="device">
  <diagram name="Page-1" id="co_6bIOAztTTfTZROP1e">
    <mxGraphModel dx="1050" dy="573" grid="1" gridSize="10" guides="1" tooltips="1" connect="1" arrows="1" fold="1" page="1" pageScale="1" pageWidth="850" pageHeight="1100" math="0" shadow="0">
      <root>
        <mxCell id="0" />
        <mxCell id="1" parent="0" />
        <mxCell id="C_uGnsL3WpYuiywDh-0M-3" value="" style="edgeStyle=orthogonalEdgeStyle;rounded=0;orthogonalLoop=1;jettySize=auto;html=1;" edge="1" parent="1" source="C_uGnsL3WpYuiywDh-0M-1" target="C_uGnsL3WpYuiywDh-0M-2">
          <mxGeometry relative="1" as="geometry" />
        </mxCell>
        <mxCell id="C_uGnsL3WpYuiywDh-0M-1" value="&lt;font style=&quot;font-size: 25px;&quot;&gt;شروع&lt;/font&gt;" style="ellipse;whiteSpace=wrap;html=1;fillColor=#f8cecc;strokeColor=#b85450;" vertex="1" parent="1">
          <mxGeometry x="365" y="10" width="120" height="80" as="geometry" />
        </mxCell>
        <mxCell id="C_uGnsL3WpYuiywDh-0M-5" value="" style="edgeStyle=orthogonalEdgeStyle;rounded=0;orthogonalLoop=1;jettySize=auto;html=1;" edge="1" parent="1" source="C_uGnsL3WpYuiywDh-0M-2" target="C_uGnsL3WpYuiywDh-0M-4">
          <mxGeometry relative="1" as="geometry" />
        </mxCell>
        <mxCell id="C_uGnsL3WpYuiywDh-0M-2" value="&lt;font style=&quot;font-size: 20px;&quot;&gt;t = 0&lt;br&gt;i = 0&lt;/font&gt;" style="rounded=0;whiteSpace=wrap;html=1;fillColor=#d5e8d4;strokeColor=#82b366;" vertex="1" parent="1">
          <mxGeometry x="365" y="110" width="120" height="60" as="geometry" />
        </mxCell>
        <mxCell id="C_uGnsL3WpYuiywDh-0M-7" value="" style="edgeStyle=orthogonalEdgeStyle;rounded=0;orthogonalLoop=1;jettySize=auto;html=1;" edge="1" parent="1" source="C_uGnsL3WpYuiywDh-0M-4" target="C_uGnsL3WpYuiywDh-0M-6">
          <mxGeometry relative="1" as="geometry" />
        </mxCell>
        <mxCell id="C_uGnsL3WpYuiywDh-0M-4" value="&lt;div style=&quot;direction: rtl;&quot;&gt;&lt;span style=&quot;background-color: initial;&quot;&gt;&lt;font style=&quot;font-size: 22px;&quot;&gt;nرا بگیر&lt;/font&gt;&lt;/span&gt;&lt;/div&gt;" style="shape=parallelogram;perimeter=parallelogramPerimeter;whiteSpace=wrap;html=1;fixedSize=1;fillColor=#e1d5e7;strokeColor=#9673a6;" vertex="1" parent="1">
          <mxGeometry x="365" y="200" width="120" height="60" as="geometry" />
        </mxCell>
        <mxCell id="C_uGnsL3WpYuiywDh-0M-9" value="" style="edgeStyle=orthogonalEdgeStyle;rounded=0;orthogonalLoop=1;jettySize=auto;html=1;" edge="1" parent="1" source="C_uGnsL3WpYuiywDh-0M-6" target="C_uGnsL3WpYuiywDh-0M-8">
          <mxGeometry relative="1" as="geometry" />
        </mxCell>
        <mxCell id="C_uGnsL3WpYuiywDh-0M-6" value="&lt;font style=&quot;font-size: 20px;&quot;&gt;t += n&lt;br&gt;i += 1&lt;/font&gt;" style="rounded=0;whiteSpace=wrap;html=1;fillColor=#d80073;strokeColor=#A50040;fontColor=#ffffff;" vertex="1" parent="1">
          <mxGeometry x="365" y="290" width="120" height="60" as="geometry" />
        </mxCell>
        <mxCell id="C_uGnsL3WpYuiywDh-0M-10" style="edgeStyle=orthogonalEdgeStyle;rounded=0;orthogonalLoop=1;jettySize=auto;html=1;entryX=0;entryY=0.25;entryDx=0;entryDy=0;" edge="1" parent="1" source="C_uGnsL3WpYuiywDh-0M-8" target="C_uGnsL3WpYuiywDh-0M-4">
          <mxGeometry relative="1" as="geometry">
            <mxPoint x="170" y="200" as="targetPoint" />
            <Array as="points">
              <mxPoint x="180" y="410" />
              <mxPoint x="180" y="219" />
            </Array>
          </mxGeometry>
        </mxCell>
        <mxCell id="C_uGnsL3WpYuiywDh-0M-13" value="" style="edgeStyle=orthogonalEdgeStyle;rounded=0;orthogonalLoop=1;jettySize=auto;html=1;" edge="1" parent="1" source="C_uGnsL3WpYuiywDh-0M-8" target="C_uGnsL3WpYuiywDh-0M-12">
          <mxGeometry relative="1" as="geometry" />
        </mxCell>
        <mxCell id="C_uGnsL3WpYuiywDh-0M-8" value="&lt;font style=&quot;font-size: 20px;&quot;&gt;i &amp;lt; 5&amp;nbsp;&lt;/font&gt;" style="rhombus;whiteSpace=wrap;html=1;fillColor=#1ba1e2;fontColor=#ffffff;strokeColor=#006EAF;" vertex="1" parent="1">
          <mxGeometry x="385" y="370" width="80" height="80" as="geometry" />
        </mxCell>
        <mxCell id="C_uGnsL3WpYuiywDh-0M-11" value="&lt;font style=&quot;font-size: 22px;&quot;&gt;بله&lt;/font&gt;" style="text;html=1;strokeColor=none;fillColor=none;align=center;verticalAlign=middle;whiteSpace=wrap;rounded=0;" vertex="1" parent="1">
          <mxGeometry x="240" y="380" width="60" height="30" as="geometry" />
        </mxCell>
        <mxCell id="C_uGnsL3WpYuiywDh-0M-15" value="" style="edgeStyle=orthogonalEdgeStyle;rounded=0;orthogonalLoop=1;jettySize=auto;html=1;" edge="1" parent="1" source="C_uGnsL3WpYuiywDh-0M-12" target="C_uGnsL3WpYuiywDh-0M-14">
          <mxGeometry relative="1" as="geometry" />
        </mxCell>
        <mxCell id="C_uGnsL3WpYuiywDh-0M-12" value="&lt;div style=&quot;direction: rtl;&quot;&gt;&lt;span style=&quot;background-color: initial;&quot;&gt;&lt;font style=&quot;font-size: 21px;&quot;&gt;t را نمایش بده&lt;/font&gt;&lt;/span&gt;&lt;/div&gt;" style="shape=document;whiteSpace=wrap;html=1;boundedLbl=1;fillColor=#a20025;fontColor=#ffffff;strokeColor=#6F0000;" vertex="1" parent="1">
          <mxGeometry x="365" y="470" width="120" height="80" as="geometry" />
        </mxCell>
        <mxCell id="C_uGnsL3WpYuiywDh-0M-14" value="&lt;font style=&quot;font-size: 25px;&quot;&gt;پایان&lt;/font&gt;" style="ellipse;whiteSpace=wrap;html=1;fillColor=#f8cecc;strokeColor=#b85450;" vertex="1" parent="1">
          <mxGeometry x="365" y="570" width="120" height="80" as="geometry" />
        </mxCell>
        <mxCell id="C_uGnsL3WpYuiywDh-0M-16" value="&lt;font style=&quot;font-size: 22px;&quot;&gt;خیر&lt;/font&gt;" style="text;html=1;strokeColor=none;fillColor=none;align=center;verticalAlign=middle;whiteSpace=wrap;rounded=0;" vertex="1" parent="1">
          <mxGeometry x="460" y="430" width="60" height="30" as="geometry" />
        </mxCell>
      </root>
    </mxGraphModel>
  </diagram>
</mxfile>
